<?xml version="1.0" encoding="UTF-8" standalone="no"?>
<!DOCTYPE svg PUBLIC "-//W3C//DTD SVG 1.1//EN"
 "http://www.w3.org/Graphics/SVG/1.1/DTD/svg11.dtd">
<!-- Generated by graphviz version 3.0.0 (20220226.1711)
 -->
<!-- Title: dataflow Pages: 1 -->
<svg width="519pt" height="620pt"
 viewBox="0.00 0.00 519.00 620.00" xmlns="http://www.w3.org/2000/svg" xmlns:xlink="http://www.w3.org/1999/xlink">
<g id="graph0" class="graph" transform="scale(1 1) rotate(0) translate(4 616)">
<title>dataflow</title>
<polygon fill="white" stroke="transparent" points="-4,4 -4,-616 515,-616 515,4 -4,4"/>
<!-- upstream_pipeline -->
<g id="node1" class="node">
<title>upstream_pipeline</title>
<ellipse fill="white" stroke="black" cx="266" cy="-522" rx="74.19" ry="18"/>
<text text-anchor="middle" x="266" y="-518.3" font-family="Times,serif" font-size="14.00">upstream pipeline</text>
</g>
<!-- upload -->
<g id="node6" class="node">
<title>upload</title>
<polygon fill="white" stroke="black" points="293,-468 239,-468 239,-432 293,-432 293,-468"/>
<text text-anchor="middle" x="266" y="-446.3" font-family="Times,serif" font-size="14.00">upload</text>
</g>
<!-- upstream_pipeline&#45;&gt;upload -->
<g id="edge2" class="edge">
<title>upstream_pipeline&#45;&gt;upload</title>
<path fill="none" stroke="black" d="M266,-503.7C266,-495.98 266,-486.71 266,-478.11"/>
<polygon fill="black" stroke="black" points="269.5,-478.1 266,-468.1 262.5,-478.1 269.5,-478.1"/>
</g>
<!-- downstream_pipeline -->
<g id="node2" class="node">
<title>downstream_pipeline</title>
<ellipse fill="#e6f5c9" stroke="black" cx="303" cy="-234" rx="85.29" ry="18"/>
<text text-anchor="middle" x="303" y="-230.3" font-family="Times,serif" font-size="14.00">downstream pipeline</text>
</g>
<!-- test -->
<g id="node9" class="node">
<title>test</title>
<polygon fill="#fff2ae" stroke="black" points="149,-180 95,-180 95,-144 149,-144 149,-180"/>
<text text-anchor="middle" x="122" y="-158.3" font-family="Times,serif" font-size="14.00">test</text>
</g>
<!-- downstream_pipeline&#45;&gt;test -->
<g id="edge11" class="edge">
<title>downstream_pipeline&#45;&gt;test</title>
<path fill="none" stroke="black" d="M259.78,-218.36C232.89,-208.99 197.49,-196.18 158.46,-180.03"/>
<polygon fill="black" stroke="black" points="159.58,-176.7 149.01,-176.08 156.89,-183.16 159.58,-176.7"/>
</g>
<!-- main&#45;tmp -->
<g id="node10" class="node">
<title>main&#45;tmp</title>
<polygon fill="#e6f5c9" stroke="black" points="238.5,-180 167.5,-180 167.5,-144 238.5,-144 238.5,-180"/>
<text text-anchor="middle" x="203" y="-158.3" font-family="Times,serif" font-size="14.00">main&#45;tmp</text>
</g>
<!-- downstream_pipeline&#45;&gt;main&#45;tmp -->
<g id="edge7" class="edge">
<title>downstream_pipeline&#45;&gt;main&#45;tmp</title>
<path fill="none" stroke="black" d="M271.07,-210.65C259.78,-202.75 247.07,-193.85 235.72,-185.9"/>
<polygon fill="black" stroke="black" points="269.35,-213.72 279.55,-216.59 273.37,-207.99 269.35,-213.72"/>
<polygon fill="black" stroke="black" points="237.54,-182.91 227.34,-180.04 233.53,-188.64 237.54,-182.91"/>
</g>
<!-- main&#45;analysis -->
<g id="node11" class="node">
<title>main&#45;analysis</title>
<polygon fill="#e6f5c9" stroke="black" points="349,-180 257,-180 257,-144 349,-144 349,-180"/>
<text text-anchor="middle" x="303" y="-158.3" font-family="Times,serif" font-size="14.00">main&#45;analysis</text>
</g>
<!-- downstream_pipeline&#45;&gt;main&#45;analysis -->
<g id="edge8" class="edge">
<title>downstream_pipeline&#45;&gt;main&#45;analysis</title>
<path fill="none" stroke="black" d="M303,-205.67C303,-200.69 303,-195.49 303,-190.51"/>
<polygon fill="black" stroke="black" points="299.5,-205.7 303,-215.7 306.5,-205.7 299.5,-205.7"/>
<polygon fill="black" stroke="black" points="306.5,-190.1 303,-180.1 299.5,-190.1 306.5,-190.1"/>
</g>
<!-- main&#45;web -->
<g id="node12" class="node">
<title>main&#45;web</title>
<polygon fill="#e6f5c9" stroke="black" points="438.5,-180 367.5,-180 367.5,-144 438.5,-144 438.5,-180"/>
<text text-anchor="middle" x="403" y="-158.3" font-family="Times,serif" font-size="14.00">main&#45;web</text>
</g>
<!-- downstream_pipeline&#45;&gt;main&#45;web -->
<g id="edge9" class="edge">
<title>downstream_pipeline&#45;&gt;main&#45;web</title>
<path fill="none" stroke="black" d="M326.45,-216.59C339.45,-207.49 355.83,-196.02 370.1,-186.03"/>
<polygon fill="black" stroke="black" points="372.47,-188.64 378.66,-180.04 368.46,-182.91 372.47,-188.64"/>
</g>
<!-- release -->
<g id="node16" class="node">
<title>release</title>
<polygon fill="white" stroke="black" points="511,-180 457,-180 457,-144 511,-144 511,-180"/>
<text text-anchor="middle" x="484" y="-158.3" font-family="Times,serif" font-size="14.00">release</text>
</g>
<!-- downstream_pipeline&#45;&gt;release -->
<g id="edge10" class="edge">
<title>downstream_pipeline&#45;&gt;release</title>
<path fill="none" stroke="black" d="M346.22,-218.36C373.11,-208.99 408.51,-196.18 447.54,-180.03"/>
<polygon fill="black" stroke="black" points="449.11,-183.16 456.99,-176.08 446.42,-176.7 449.11,-183.16"/>
</g>
<!-- test_pipeline -->
<g id="node3" class="node">
<title>test_pipeline</title>
<ellipse fill="#fff2ae" stroke="black" cx="122" cy="-90" rx="53.89" ry="18"/>
<text text-anchor="middle" x="122" y="-86.3" font-family="Times,serif" font-size="14.00">test pipeline</text>
</g>
<!-- test&#45;tmp -->
<g id="node13" class="node">
<title>test&#45;tmp</title>
<polygon fill="#fff2ae" stroke="black" points="62,-36 0,-36 0,0 62,0 62,-36"/>
<text text-anchor="middle" x="31" y="-14.3" font-family="Times,serif" font-size="14.00">test&#45;tmp</text>
</g>
<!-- test_pipeline&#45;&gt;test&#45;tmp -->
<g id="edge13" class="edge">
<title>test_pipeline&#45;&gt;test&#45;tmp</title>
<path fill="none" stroke="black" d="M93.2,-66.84C82.98,-58.98 71.46,-50.12 61.13,-42.18"/>
<polygon fill="black" stroke="black" points="91.29,-69.79 101.35,-73.12 95.56,-64.24 91.29,-69.79"/>
<polygon fill="black" stroke="black" points="63.22,-39.37 53.16,-36.04 58.95,-44.92 63.22,-39.37"/>
</g>
<!-- test&#45;analysis -->
<g id="node14" class="node">
<title>test&#45;analysis</title>
<polygon fill="#fff2ae" stroke="black" points="163.5,-36 80.5,-36 80.5,0 163.5,0 163.5,-36"/>
<text text-anchor="middle" x="122" y="-14.3" font-family="Times,serif" font-size="14.00">test&#45;analysis</text>
</g>
<!-- test_pipeline&#45;&gt;test&#45;analysis -->
<g id="edge14" class="edge">
<title>test_pipeline&#45;&gt;test&#45;analysis</title>
<path fill="none" stroke="black" d="M122,-61.67C122,-56.69 122,-51.49 122,-46.51"/>
<polygon fill="black" stroke="black" points="118.5,-61.7 122,-71.7 125.5,-61.7 118.5,-61.7"/>
<polygon fill="black" stroke="black" points="125.5,-46.1 122,-36.1 118.5,-46.1 125.5,-46.1"/>
</g>
<!-- test&#45;web -->
<g id="node15" class="node">
<title>test&#45;web</title>
<polygon fill="#fff2ae" stroke="black" points="244,-36 182,-36 182,0 244,0 244,-36"/>
<text text-anchor="middle" x="213" y="-14.3" font-family="Times,serif" font-size="14.00">test&#45;web</text>
</g>
<!-- test_pipeline&#45;&gt;test&#45;web -->
<g id="edge15" class="edge">
<title>test_pipeline&#45;&gt;test&#45;web</title>
<path fill="none" stroke="black" d="M142.65,-73.12C154.44,-64.05 169.43,-52.51 182.55,-42.42"/>
<polygon fill="black" stroke="black" points="185.05,-44.92 190.84,-36.04 180.78,-39.37 185.05,-44.92"/>
</g>
<!-- upload_processor -->
<g id="node4" class="node">
<title>upload_processor</title>
<ellipse fill="white" stroke="black" cx="266" cy="-378" rx="70.69" ry="18"/>
<text text-anchor="middle" x="266" y="-374.3" font-family="Times,serif" font-size="14.00">upload processor</text>
</g>
<!-- archive -->
<g id="node7" class="node">
<title>archive</title>
<polygon fill="white" stroke="black" points="258,-324 202,-324 202,-288 258,-288 258,-324"/>
<text text-anchor="middle" x="230" y="-302.3" font-family="Times,serif" font-size="14.00">archive</text>
</g>
<!-- upload_processor&#45;&gt;archive -->
<g id="edge4" class="edge">
<title>upload_processor&#45;&gt;archive</title>
<path fill="none" stroke="black" d="M257.29,-360.05C253.15,-352.01 248.11,-342.2 243.49,-333.23"/>
<polygon fill="black" stroke="black" points="246.57,-331.57 238.88,-324.28 240.35,-334.77 246.57,-331.57"/>
</g>
<!-- main -->
<g id="node8" class="node">
<title>main</title>
<polygon fill="#e6f5c9" stroke="black" points="330,-324 276,-324 276,-288 330,-288 330,-324"/>
<text text-anchor="middle" x="303" y="-302.3" font-family="Times,serif" font-size="14.00">main</text>
</g>
<!-- upload_processor&#45;&gt;main -->
<g id="edge5" class="edge">
<title>upload_processor&#45;&gt;main</title>
<path fill="none" stroke="black" d="M274.96,-360.05C279.21,-352.01 284.39,-342.2 289.14,-333.23"/>
<polygon fill="black" stroke="black" points="292.29,-334.75 293.87,-324.28 286.1,-331.48 292.29,-334.75"/>
</g>
<!-- reference -->
<g id="node5" class="node">
<title>reference</title>
<polygon fill="white" stroke="black" points="299.5,-612 232.5,-612 232.5,-576 299.5,-576 299.5,-612"/>
<text text-anchor="middle" x="266" y="-590.3" font-family="Times,serif" font-size="14.00">reference</text>
</g>
<!-- reference&#45;&gt;upstream_pipeline -->
<g id="edge1" class="edge">
<title>reference&#45;&gt;upstream_pipeline</title>
<path fill="none" stroke="black" d="M266,-575.7C266,-567.98 266,-558.71 266,-550.11"/>
<polygon fill="black" stroke="black" points="269.5,-550.1 266,-540.1 262.5,-550.1 269.5,-550.1"/>
</g>
<!-- upload&#45;&gt;upload_processor -->
<g id="edge3" class="edge">
<title>upload&#45;&gt;upload_processor</title>
<path fill="none" stroke="black" d="M266,-431.7C266,-423.98 266,-414.71 266,-406.11"/>
<polygon fill="black" stroke="black" points="269.5,-406.1 266,-396.1 262.5,-406.1 269.5,-406.1"/>
</g>
<!-- main&#45;&gt;downstream_pipeline -->
<g id="edge6" class="edge">
<title>main&#45;&gt;downstream_pipeline</title>
<path fill="none" stroke="black" d="M303,-277.67C303,-272.69 303,-267.49 303,-262.51"/>
<polygon fill="black" stroke="black" points="299.5,-277.7 303,-287.7 306.5,-277.7 299.5,-277.7"/>
<polygon fill="black" stroke="black" points="306.5,-262.1 303,-252.1 299.5,-262.1 306.5,-262.1"/>
</g>
<!-- test&#45;&gt;test_pipeline -->
<g id="edge12" class="edge">
<title>test&#45;&gt;test_pipeline</title>
<path fill="none" stroke="black" d="M122,-133.67C122,-128.69 122,-123.49 122,-118.51"/>
<polygon fill="black" stroke="black" points="118.5,-133.7 122,-143.7 125.5,-133.7 118.5,-133.7"/>
<polygon fill="black" stroke="black" points="125.5,-118.1 122,-108.1 118.5,-118.1 125.5,-118.1"/>
</g>
</g>
</svg>
