<?xml version="1.0" encoding="UTF-8" standalone="no"?>
<!DOCTYPE svg PUBLIC "-//W3C//DTD SVG 1.1//EN"
 "http://www.w3.org/Graphics/SVG/1.1/DTD/svg11.dtd">
<!-- Generated by graphviz version 2.47.0 (20210316.0004)
 -->
<!-- Title: dataflow Pages: 1 -->
<svg width="321pt" height="476pt"
 viewBox="0.00 0.00 320.95 476.00" xmlns="http://www.w3.org/2000/svg" xmlns:xlink="http://www.w3.org/1999/xlink">
<g id="graph0" class="graph" transform="scale(1 1) rotate(0) translate(4 472)">
<title>dataflow</title>
<polygon fill="white" stroke="transparent" points="-4,4 -4,-472 316.95,-472 316.95,4 -4,4"/>
<!-- upstream_pipeline -->
<g id="node1" class="node">
<title>upstream_pipeline</title>
<ellipse fill="white" stroke="black" cx="174.95" cy="-378" rx="74.19" ry="18"/>
<text text-anchor="middle" x="174.95" y="-374.3" font-family="Times,serif" font-size="14.00">upstream pipeline</text>
</g>
<!-- upload -->
<g id="node6" class="node">
<title>upload</title>
<polygon fill="white" stroke="black" points="201.95,-324 147.95,-324 147.95,-288 201.95,-288 201.95,-324"/>
<text text-anchor="middle" x="174.95" y="-302.3" font-family="Times,serif" font-size="14.00">upload</text>
</g>
<!-- upstream_pipeline&#45;&gt;upload -->
<g id="edge2" class="edge">
<title>upstream_pipeline&#45;&gt;upload</title>
<path fill="none" stroke="black" d="M174.95,-359.7C174.95,-351.98 174.95,-342.71 174.95,-334.11"/>
<polygon fill="black" stroke="black" points="178.45,-334.1 174.95,-324.1 171.45,-334.1 178.45,-334.1"/>
</g>
<!-- downstream_pipeline -->
<g id="node2" class="node">
<title>downstream_pipeline</title>
<ellipse fill="#e6f5c9" stroke="black" cx="211.95" cy="-90" rx="85.29" ry="18"/>
<text text-anchor="middle" x="211.95" y="-86.3" font-family="Times,serif" font-size="14.00">downstream pipeline</text>
</g>
<!-- temporary -->
<g id="node10" class="node">
<title>temporary</title>
<polygon fill="#fff2ae" stroke="black" points="90.45,-36 17.45,-36 17.45,0 90.45,0 90.45,-36"/>
<text text-anchor="middle" x="53.95" y="-14.3" font-family="Times,serif" font-size="14.00">temporary</text>
</g>
<!-- downstream_pipeline&#45;&gt;temporary -->
<g id="edge7" class="edge">
<title>downstream_pipeline&#45;&gt;temporary</title>
<path fill="none" stroke="black" d="M167.52,-69.32C146.36,-59.94 121.08,-48.74 99.75,-39.29"/>
<polygon fill="black" stroke="black" points="166.32,-72.61 176.88,-73.46 169.15,-66.21 166.32,-72.61"/>
<polygon fill="black" stroke="black" points="101.12,-36.07 90.56,-35.22 98.28,-42.47 101.12,-36.07"/>
</g>
<!-- analysis -->
<g id="node11" class="node">
<title>analysis</title>
<polygon fill="#e6f5c9" stroke="black" points="168.95,-36 108.95,-36 108.95,0 168.95,0 168.95,-36"/>
<text text-anchor="middle" x="138.95" y="-14.3" font-family="Times,serif" font-size="14.00">analysis</text>
</g>
<!-- downstream_pipeline&#45;&gt;analysis -->
<g id="edge8" class="edge">
<title>downstream_pipeline&#45;&gt;analysis</title>
<path fill="none" stroke="black" d="M186.97,-65.05C179.66,-58.05 171.67,-50.38 164.34,-43.35"/>
<polygon fill="black" stroke="black" points="184.63,-67.66 194.27,-72.05 189.48,-62.61 184.63,-67.66"/>
<polygon fill="black" stroke="black" points="166.35,-40.43 156.71,-36.03 161.5,-45.48 166.35,-40.43"/>
</g>
<!-- web -->
<g id="node12" class="node">
<title>web</title>
<polygon fill="white" stroke="black" points="240.95,-36 186.95,-36 186.95,0 240.95,0 240.95,-36"/>
<text text-anchor="middle" x="213.95" y="-14.3" font-family="Times,serif" font-size="14.00">web</text>
</g>
<!-- downstream_pipeline&#45;&gt;web -->
<g id="edge9" class="edge">
<title>downstream_pipeline&#45;&gt;web</title>
<path fill="none" stroke="black" d="M212.44,-71.7C212.66,-63.98 212.92,-54.71 213.17,-46.11"/>
<polygon fill="black" stroke="black" points="216.67,-46.2 213.46,-36.1 209.67,-46 216.67,-46.2"/>
</g>
<!-- release -->
<g id="node13" class="node">
<title>release</title>
<polygon fill="white" stroke="black" points="312.95,-36 258.95,-36 258.95,0 312.95,0 312.95,-36"/>
<text text-anchor="middle" x="285.95" y="-14.3" font-family="Times,serif" font-size="14.00">release</text>
</g>
<!-- downstream_pipeline&#45;&gt;release -->
<g id="edge10" class="edge">
<title>downstream_pipeline&#45;&gt;release</title>
<path fill="none" stroke="black" d="M229.86,-72.05C239.06,-63.35 250.43,-52.59 260.53,-43.04"/>
<polygon fill="black" stroke="black" points="263.08,-45.45 267.94,-36.03 258.27,-40.36 263.08,-45.45"/>
</g>
<!-- test_pipeline -->
<g id="node3" class="node">
<title>test_pipeline</title>
<ellipse fill="#cbd5e8" stroke="black" cx="53.95" cy="-90" rx="53.89" ry="18"/>
<text text-anchor="middle" x="53.95" y="-86.3" font-family="Times,serif" font-size="14.00">test pipeline</text>
</g>
<!-- test_pipeline&#45;&gt;temporary -->
<g id="edge12" class="edge">
<title>test_pipeline&#45;&gt;temporary</title>
<path fill="none" stroke="black" d="M53.95,-61.67C53.95,-56.69 53.95,-51.49 53.95,-46.51"/>
<polygon fill="black" stroke="black" points="50.45,-61.7 53.95,-71.7 57.45,-61.7 50.45,-61.7"/>
<polygon fill="black" stroke="black" points="57.45,-46.1 53.95,-36.1 50.45,-46.1 57.45,-46.1"/>
</g>
<!-- upload_processor -->
<g id="node4" class="node">
<title>upload_processor</title>
<ellipse fill="white" stroke="black" cx="174.95" cy="-234" rx="70.69" ry="18"/>
<text text-anchor="middle" x="174.95" y="-230.3" font-family="Times,serif" font-size="14.00">upload processor</text>
</g>
<!-- archive -->
<g id="node7" class="node">
<title>archive</title>
<polygon fill="white" stroke="black" points="166.95,-180 110.95,-180 110.95,-144 166.95,-144 166.95,-180"/>
<text text-anchor="middle" x="138.95" y="-158.3" font-family="Times,serif" font-size="14.00">archive</text>
</g>
<!-- upload_processor&#45;&gt;archive -->
<g id="edge4" class="edge">
<title>upload_processor&#45;&gt;archive</title>
<path fill="none" stroke="black" d="M166.23,-216.05C162.09,-208.01 157.05,-198.2 152.43,-189.23"/>
<polygon fill="black" stroke="black" points="155.52,-187.57 147.83,-180.28 149.29,-190.77 155.52,-187.57"/>
</g>
<!-- main -->
<g id="node8" class="node">
<title>main</title>
<polygon fill="#e6f5c9" stroke="black" points="238.95,-180 184.95,-180 184.95,-144 238.95,-144 238.95,-180"/>
<text text-anchor="middle" x="211.95" y="-158.3" font-family="Times,serif" font-size="14.00">main</text>
</g>
<!-- upload_processor&#45;&gt;main -->
<g id="edge5" class="edge">
<title>upload_processor&#45;&gt;main</title>
<path fill="none" stroke="black" d="M183.9,-216.05C188.16,-208.01 193.34,-198.2 198.08,-189.23"/>
<polygon fill="black" stroke="black" points="201.24,-190.75 202.81,-180.28 195.05,-187.48 201.24,-190.75"/>
</g>
<!-- reference -->
<g id="node5" class="node">
<title>reference</title>
<polygon fill="white" stroke="black" points="208.45,-468 141.45,-468 141.45,-432 208.45,-432 208.45,-468"/>
<text text-anchor="middle" x="174.95" y="-446.3" font-family="Times,serif" font-size="14.00">reference</text>
</g>
<!-- reference&#45;&gt;upstream_pipeline -->
<g id="edge1" class="edge">
<title>reference&#45;&gt;upstream_pipeline</title>
<path fill="none" stroke="black" d="M174.95,-431.7C174.95,-423.98 174.95,-414.71 174.95,-406.11"/>
<polygon fill="black" stroke="black" points="178.45,-406.1 174.95,-396.1 171.45,-406.1 178.45,-406.1"/>
</g>
<!-- upload&#45;&gt;upload_processor -->
<g id="edge3" class="edge">
<title>upload&#45;&gt;upload_processor</title>
<path fill="none" stroke="black" d="M174.95,-287.7C174.95,-279.98 174.95,-270.71 174.95,-262.11"/>
<polygon fill="black" stroke="black" points="178.45,-262.1 174.95,-252.1 171.45,-262.1 178.45,-262.1"/>
</g>
<!-- main&#45;&gt;downstream_pipeline -->
<g id="edge6" class="edge">
<title>main&#45;&gt;downstream_pipeline</title>
<path fill="none" stroke="black" d="M211.95,-143.7C211.95,-135.98 211.95,-126.71 211.95,-118.11"/>
<polygon fill="black" stroke="black" points="215.45,-118.1 211.95,-108.1 208.45,-118.1 215.45,-118.1"/>
</g>
<!-- test -->
<g id="node9" class="node">
<title>test</title>
<polygon fill="#cbd5e8" stroke="black" points="80.95,-180 26.95,-180 26.95,-144 80.95,-144 80.95,-180"/>
<text text-anchor="middle" x="53.95" y="-158.3" font-family="Times,serif" font-size="14.00">test</text>
</g>
<!-- test&#45;&gt;test_pipeline -->
<g id="edge11" class="edge">
<title>test&#45;&gt;test_pipeline</title>
<path fill="none" stroke="black" d="M53.95,-143.7C53.95,-135.98 53.95,-126.71 53.95,-118.11"/>
<polygon fill="black" stroke="black" points="57.45,-118.1 53.95,-108.1 50.45,-118.1 57.45,-118.1"/>
</g>
</g>
</svg>
