<?xml version="1.0" encoding="UTF-8" standalone="no"?>
<!DOCTYPE svg PUBLIC "-//W3C//DTD SVG 1.1//EN"
 "http://www.w3.org/Graphics/SVG/1.1/DTD/svg11.dtd">
<!-- Generated by graphviz version 2.47.0 (20210316.0004)
 -->
<!-- Title: dataflow Pages: 1 -->
<svg width="528pt" height="620pt"
 viewBox="0.00 0.00 528.00 620.00" xmlns="http://www.w3.org/2000/svg" xmlns:xlink="http://www.w3.org/1999/xlink">
<g id="graph0" class="graph" transform="scale(1 1) rotate(0) translate(4 616)">
<title>dataflow</title>
<polygon fill="white" stroke="transparent" points="-4,4 -4,-616 524,-616 524,4 -4,4"/>
<!-- upstream_pipeline -->
<g id="node1" class="node">
<title>upstream_pipeline</title>
<ellipse fill="white" stroke="black" cx="272" cy="-522" rx="74.19" ry="18"/>
<text text-anchor="middle" x="272" y="-518.3" font-family="Times,serif" font-size="14.00">upstream pipeline</text>
</g>
<!-- upload -->
<g id="node6" class="node">
<title>upload</title>
<polygon fill="white" stroke="black" points="299,-468 245,-468 245,-432 299,-432 299,-468"/>
<text text-anchor="middle" x="272" y="-446.3" font-family="Times,serif" font-size="14.00">upload</text>
</g>
<!-- upstream_pipeline&#45;&gt;upload -->
<g id="edge2" class="edge">
<title>upstream_pipeline&#45;&gt;upload</title>
<path fill="none" stroke="black" d="M272,-503.7C272,-495.98 272,-486.71 272,-478.11"/>
<polygon fill="black" stroke="black" points="275.5,-478.1 272,-468.1 268.5,-478.1 275.5,-478.1"/>
</g>
<!-- downstream_pipeline -->
<g id="node2" class="node">
<title>downstream_pipeline</title>
<ellipse fill="#e6f5c9" stroke="black" cx="309" cy="-234" rx="85.29" ry="18"/>
<text text-anchor="middle" x="309" y="-230.3" font-family="Times,serif" font-size="14.00">downstream pipeline</text>
</g>
<!-- test -->
<g id="node9" class="node">
<title>test</title>
<polygon fill="#fff2ae" stroke="black" points="152,-180 98,-180 98,-144 152,-144 152,-180"/>
<text text-anchor="middle" x="125" y="-158.3" font-family="Times,serif" font-size="14.00">test</text>
</g>
<!-- downstream_pipeline&#45;&gt;test -->
<g id="edge11" class="edge">
<title>downstream_pipeline&#45;&gt;test</title>
<path fill="none" stroke="black" d="M265.19,-218.56C237.65,-209.2 201.27,-196.33 161.38,-179.98"/>
<polygon fill="black" stroke="black" points="162.58,-176.69 152,-176.1 159.9,-183.15 162.58,-176.69"/>
</g>
<!-- main&#45;tmp -->
<g id="node10" class="node">
<title>main&#45;tmp</title>
<polygon fill="#e6f5c9" stroke="black" points="241.5,-180 170.5,-180 170.5,-144 241.5,-144 241.5,-180"/>
<text text-anchor="middle" x="206" y="-158.3" font-family="Times,serif" font-size="14.00">main&#45;tmp</text>
</g>
<!-- downstream_pipeline&#45;&gt;main&#45;tmp -->
<g id="edge7" class="edge">
<title>downstream_pipeline&#45;&gt;main&#45;tmp</title>
<path fill="none" stroke="black" d="M276.53,-210.93C264.71,-202.9 251.33,-193.81 239.43,-185.72"/>
<polygon fill="black" stroke="black" points="274.61,-213.86 284.85,-216.59 278.55,-208.07 274.61,-213.86"/>
<polygon fill="black" stroke="black" points="241.31,-182.77 231.07,-180.04 237.38,-188.56 241.31,-182.77"/>
</g>
<!-- main&#45;metadata -->
<g id="node11" class="node">
<title>main&#45;metadata</title>
<polygon fill="#e6f5c9" stroke="black" points="358,-180 260,-180 260,-144 358,-144 358,-180"/>
<text text-anchor="middle" x="309" y="-158.3" font-family="Times,serif" font-size="14.00">main&#45;metadata</text>
</g>
<!-- downstream_pipeline&#45;&gt;main&#45;metadata -->
<g id="edge8" class="edge">
<title>downstream_pipeline&#45;&gt;main&#45;metadata</title>
<path fill="none" stroke="black" d="M309,-205.67C309,-200.69 309,-195.49 309,-190.51"/>
<polygon fill="black" stroke="black" points="305.5,-205.7 309,-215.7 312.5,-205.7 305.5,-205.7"/>
<polygon fill="black" stroke="black" points="312.5,-190.1 309,-180.1 305.5,-190.1 312.5,-190.1"/>
</g>
<!-- main&#45;web -->
<g id="node12" class="node">
<title>main&#45;web</title>
<polygon fill="#e6f5c9" stroke="black" points="447.5,-180 376.5,-180 376.5,-144 447.5,-144 447.5,-180"/>
<text text-anchor="middle" x="412" y="-158.3" font-family="Times,serif" font-size="14.00">main&#45;web</text>
</g>
<!-- downstream_pipeline&#45;&gt;main&#45;web -->
<g id="edge9" class="edge">
<title>downstream_pipeline&#45;&gt;main&#45;web</title>
<path fill="none" stroke="black" d="M333.15,-216.59C346.67,-207.4 363.73,-195.8 378.52,-185.75"/>
<polygon fill="black" stroke="black" points="380.62,-188.56 386.93,-180.04 376.69,-182.77 380.62,-188.56"/>
</g>
<!-- release -->
<g id="node16" class="node">
<title>release</title>
<polygon fill="white" stroke="black" points="520,-180 466,-180 466,-144 520,-144 520,-180"/>
<text text-anchor="middle" x="493" y="-158.3" font-family="Times,serif" font-size="14.00">release</text>
</g>
<!-- downstream_pipeline&#45;&gt;release -->
<g id="edge10" class="edge">
<title>downstream_pipeline&#45;&gt;release</title>
<path fill="none" stroke="black" d="M352.81,-218.56C380.35,-209.2 416.73,-196.33 456.62,-179.98"/>
<polygon fill="black" stroke="black" points="458.1,-183.15 466,-176.1 455.42,-176.69 458.1,-183.15"/>
</g>
<!-- test_pipeline -->
<g id="node3" class="node">
<title>test_pipeline</title>
<ellipse fill="#fff2ae" stroke="black" cx="125" cy="-90" rx="53.89" ry="18"/>
<text text-anchor="middle" x="125" y="-86.3" font-family="Times,serif" font-size="14.00">test pipeline</text>
</g>
<!-- test&#45;tmp -->
<g id="node13" class="node">
<title>test&#45;tmp</title>
<polygon fill="#fff2ae" stroke="black" points="62,-36 0,-36 0,0 62,0 62,-36"/>
<text text-anchor="middle" x="31" y="-14.3" font-family="Times,serif" font-size="14.00">test&#45;tmp</text>
</g>
<!-- test_pipeline&#45;&gt;test&#45;tmp -->
<g id="edge13" class="edge">
<title>test_pipeline&#45;&gt;test&#45;tmp</title>
<path fill="none" stroke="black" d="M95.63,-67.13C85.01,-59.22 72.98,-50.26 62.21,-42.24"/>
<polygon fill="black" stroke="black" points="93.56,-69.95 103.67,-73.12 97.74,-64.34 93.56,-69.95"/>
<polygon fill="black" stroke="black" points="64,-39.21 53.89,-36.04 59.82,-44.82 64,-39.21"/>
</g>
<!-- test&#45;metadata -->
<g id="node14" class="node">
<title>test&#45;metadata</title>
<polygon fill="#fff2ae" stroke="black" points="169.5,-36 80.5,-36 80.5,0 169.5,0 169.5,-36"/>
<text text-anchor="middle" x="125" y="-14.3" font-family="Times,serif" font-size="14.00">test&#45;metadata</text>
</g>
<!-- test_pipeline&#45;&gt;test&#45;metadata -->
<g id="edge14" class="edge">
<title>test_pipeline&#45;&gt;test&#45;metadata</title>
<path fill="none" stroke="black" d="M125,-61.67C125,-56.69 125,-51.49 125,-46.51"/>
<polygon fill="black" stroke="black" points="121.5,-61.7 125,-71.7 128.5,-61.7 121.5,-61.7"/>
<polygon fill="black" stroke="black" points="128.5,-46.1 125,-36.1 121.5,-46.1 128.5,-46.1"/>
</g>
<!-- test&#45;web -->
<g id="node15" class="node">
<title>test&#45;web</title>
<polygon fill="#fff2ae" stroke="black" points="250,-36 188,-36 188,0 250,0 250,-36"/>
<text text-anchor="middle" x="219" y="-14.3" font-family="Times,serif" font-size="14.00">test&#45;web</text>
</g>
<!-- test_pipeline&#45;&gt;test&#45;web -->
<g id="edge15" class="edge">
<title>test_pipeline&#45;&gt;test&#45;web</title>
<path fill="none" stroke="black" d="M146.33,-73.12C158.62,-63.96 174.29,-52.29 187.93,-42.14"/>
<polygon fill="black" stroke="black" points="190.18,-44.82 196.11,-36.04 186,-39.21 190.18,-44.82"/>
</g>
<!-- upload_processor -->
<g id="node4" class="node">
<title>upload_processor</title>
<ellipse fill="white" stroke="black" cx="272" cy="-378" rx="70.69" ry="18"/>
<text text-anchor="middle" x="272" y="-374.3" font-family="Times,serif" font-size="14.00">upload processor</text>
</g>
<!-- archive -->
<g id="node7" class="node">
<title>archive</title>
<polygon fill="white" stroke="black" points="264,-324 208,-324 208,-288 264,-288 264,-324"/>
<text text-anchor="middle" x="236" y="-302.3" font-family="Times,serif" font-size="14.00">archive</text>
</g>
<!-- upload_processor&#45;&gt;archive -->
<g id="edge4" class="edge">
<title>upload_processor&#45;&gt;archive</title>
<path fill="none" stroke="black" d="M263.29,-360.05C259.15,-352.01 254.11,-342.2 249.49,-333.23"/>
<polygon fill="black" stroke="black" points="252.57,-331.57 244.88,-324.28 246.35,-334.77 252.57,-331.57"/>
</g>
<!-- main -->
<g id="node8" class="node">
<title>main</title>
<polygon fill="#e6f5c9" stroke="black" points="336,-324 282,-324 282,-288 336,-288 336,-324"/>
<text text-anchor="middle" x="309" y="-302.3" font-family="Times,serif" font-size="14.00">main</text>
</g>
<!-- upload_processor&#45;&gt;main -->
<g id="edge5" class="edge">
<title>upload_processor&#45;&gt;main</title>
<path fill="none" stroke="black" d="M280.96,-360.05C285.21,-352.01 290.39,-342.2 295.14,-333.23"/>
<polygon fill="black" stroke="black" points="298.29,-334.75 299.87,-324.28 292.1,-331.48 298.29,-334.75"/>
</g>
<!-- reference -->
<g id="node5" class="node">
<title>reference</title>
<polygon fill="white" stroke="black" points="305.5,-612 238.5,-612 238.5,-576 305.5,-576 305.5,-612"/>
<text text-anchor="middle" x="272" y="-590.3" font-family="Times,serif" font-size="14.00">reference</text>
</g>
<!-- reference&#45;&gt;upstream_pipeline -->
<g id="edge1" class="edge">
<title>reference&#45;&gt;upstream_pipeline</title>
<path fill="none" stroke="black" d="M272,-575.7C272,-567.98 272,-558.71 272,-550.11"/>
<polygon fill="black" stroke="black" points="275.5,-550.1 272,-540.1 268.5,-550.1 275.5,-550.1"/>
</g>
<!-- upload&#45;&gt;upload_processor -->
<g id="edge3" class="edge">
<title>upload&#45;&gt;upload_processor</title>
<path fill="none" stroke="black" d="M272,-431.7C272,-423.98 272,-414.71 272,-406.11"/>
<polygon fill="black" stroke="black" points="275.5,-406.1 272,-396.1 268.5,-406.1 275.5,-406.1"/>
</g>
<!-- main&#45;&gt;downstream_pipeline -->
<g id="edge6" class="edge">
<title>main&#45;&gt;downstream_pipeline</title>
<path fill="none" stroke="black" d="M309,-277.67C309,-272.69 309,-267.49 309,-262.51"/>
<polygon fill="black" stroke="black" points="305.5,-277.7 309,-287.7 312.5,-277.7 305.5,-277.7"/>
<polygon fill="black" stroke="black" points="312.5,-262.1 309,-252.1 305.5,-262.1 312.5,-262.1"/>
</g>
<!-- test&#45;&gt;test_pipeline -->
<g id="edge12" class="edge">
<title>test&#45;&gt;test_pipeline</title>
<path fill="none" stroke="black" d="M125,-133.67C125,-128.69 125,-123.49 125,-118.51"/>
<polygon fill="black" stroke="black" points="121.5,-133.7 125,-143.7 128.5,-133.7 121.5,-133.7"/>
<polygon fill="black" stroke="black" points="128.5,-118.1 125,-108.1 121.5,-118.1 128.5,-118.1"/>
</g>
</g>
</svg>
