<?xml version="1.0" encoding="UTF-8" standalone="no"?>
<!DOCTYPE svg PUBLIC "-//W3C//DTD SVG 1.1//EN"
 "http://www.w3.org/Graphics/SVG/1.1/DTD/svg11.dtd">
<!-- Generated by graphviz version 2.47.0 (20210316.0004)
 -->
<!-- Title: dataflow Pages: 1 -->
<svg width="357pt" height="620pt"
 viewBox="0.00 0.00 357.00 620.00" xmlns="http://www.w3.org/2000/svg" xmlns:xlink="http://www.w3.org/1999/xlink">
<g id="graph0" class="graph" transform="scale(1 1) rotate(0) translate(4 616)">
<title>dataflow</title>
<polygon fill="white" stroke="transparent" points="-4,4 -4,-616 353,-616 353,4 -4,4"/>
<!-- upstream_pipeline -->
<g id="node1" class="node">
<title>upstream_pipeline</title>
<ellipse fill="white" stroke="black" cx="159" cy="-522" rx="74.19" ry="18"/>
<text text-anchor="middle" x="159" y="-518.3" font-family="Times,serif" font-size="14.00">upstream pipeline</text>
</g>
<!-- upload -->
<g id="node6" class="node">
<title>upload</title>
<polygon fill="white" stroke="black" points="186,-468 132,-468 132,-432 186,-432 186,-468"/>
<text text-anchor="middle" x="159" y="-446.3" font-family="Times,serif" font-size="14.00">upload</text>
</g>
<!-- upstream_pipeline&#45;&gt;upload -->
<g id="edge2" class="edge">
<title>upstream_pipeline&#45;&gt;upload</title>
<path fill="none" stroke="black" d="M159,-503.7C159,-495.98 159,-486.71 159,-478.11"/>
<polygon fill="black" stroke="black" points="162.5,-478.1 159,-468.1 155.5,-478.1 162.5,-478.1"/>
</g>
<!-- downstream_pipeline -->
<g id="node2" class="node">
<title>downstream_pipeline</title>
<ellipse fill="#e6f5c9" stroke="black" cx="196" cy="-234" rx="85.29" ry="18"/>
<text text-anchor="middle" x="196" y="-230.3" font-family="Times,serif" font-size="14.00">downstream pipeline</text>
</g>
<!-- test -->
<g id="node9" class="node">
<title>test</title>
<polygon fill="#fff2ae" stroke="black" points="98,-180 44,-180 44,-144 98,-144 98,-180"/>
<text text-anchor="middle" x="71" y="-158.3" font-family="Times,serif" font-size="14.00">test</text>
</g>
<!-- downstream_pipeline&#45;&gt;test -->
<g id="edge10" class="edge">
<title>downstream_pipeline&#45;&gt;test</title>
<path fill="none" stroke="black" d="M167.32,-216.94C149.4,-206.91 126.17,-193.9 107.02,-183.17"/>
<polygon fill="black" stroke="black" points="108.69,-180.1 98.26,-178.26 105.27,-186.2 108.69,-180.1"/>
</g>
<!-- main&#45;tmp -->
<g id="node10" class="node">
<title>main&#45;tmp</title>
<polygon fill="#e6f5c9" stroke="black" points="187.5,-180 116.5,-180 116.5,-144 187.5,-144 187.5,-180"/>
<text text-anchor="middle" x="152" y="-158.3" font-family="Times,serif" font-size="14.00">main&#45;tmp</text>
</g>
<!-- downstream_pipeline&#45;&gt;main&#45;tmp -->
<g id="edge7" class="edge">
<title>downstream_pipeline&#45;&gt;main&#45;tmp</title>
<path fill="none" stroke="black" d="M179.92,-207.42C176.11,-201.36 172.04,-194.88 168.22,-188.8"/>
<polygon fill="black" stroke="black" points="177.06,-209.45 185.35,-216.05 182.99,-205.73 177.06,-209.45"/>
<polygon fill="black" stroke="black" points="171.14,-186.88 162.86,-180.28 165.22,-190.6 171.14,-186.88"/>
</g>
<!-- main&#45;web -->
<g id="node11" class="node">
<title>main&#45;web</title>
<polygon fill="#e6f5c9" stroke="black" points="276.5,-180 205.5,-180 205.5,-144 276.5,-144 276.5,-180"/>
<text text-anchor="middle" x="241" y="-158.3" font-family="Times,serif" font-size="14.00">main&#45;web</text>
</g>
<!-- downstream_pipeline&#45;&gt;main&#45;web -->
<g id="edge8" class="edge">
<title>downstream_pipeline&#45;&gt;main&#45;web</title>
<path fill="none" stroke="black" d="M206.89,-216.05C212.12,-207.92 218.5,-198 224.32,-188.94"/>
<polygon fill="black" stroke="black" points="227.43,-190.58 229.89,-180.28 221.54,-186.79 227.43,-190.58"/>
</g>
<!-- release -->
<g id="node14" class="node">
<title>release</title>
<polygon fill="white" stroke="black" points="349,-180 295,-180 295,-144 349,-144 349,-180"/>
<text text-anchor="middle" x="322" y="-158.3" font-family="Times,serif" font-size="14.00">release</text>
</g>
<!-- downstream_pipeline&#45;&gt;release -->
<g id="edge9" class="edge">
<title>downstream_pipeline&#45;&gt;release</title>
<path fill="none" stroke="black" d="M224.91,-216.94C243.1,-206.84 266.71,-193.72 286.1,-182.95"/>
<polygon fill="black" stroke="black" points="287.91,-185.94 294.95,-178.03 284.51,-179.82 287.91,-185.94"/>
</g>
<!-- test_pipeline -->
<g id="node3" class="node">
<title>test_pipeline</title>
<ellipse fill="#fff2ae" stroke="black" cx="71" cy="-90" rx="53.89" ry="18"/>
<text text-anchor="middle" x="71" y="-86.3" font-family="Times,serif" font-size="14.00">test pipeline</text>
</g>
<!-- test&#45;tmp -->
<g id="node12" class="node">
<title>test&#45;tmp</title>
<polygon fill="#fff2ae" stroke="black" points="62,-36 0,-36 0,0 62,0 62,-36"/>
<text text-anchor="middle" x="31" y="-14.3" font-family="Times,serif" font-size="14.00">test&#45;tmp</text>
</g>
<!-- test_pipeline&#45;&gt;test&#45;tmp -->
<g id="edge12" class="edge">
<title>test_pipeline&#45;&gt;test&#45;tmp</title>
<path fill="none" stroke="black" d="M56.22,-63.14C52.87,-57.26 49.3,-51.02 45.93,-45.13"/>
<polygon fill="black" stroke="black" points="53.32,-65.11 61.32,-72.05 59.39,-61.64 53.32,-65.11"/>
<polygon fill="black" stroke="black" points="48.87,-43.22 40.87,-36.28 42.79,-46.69 48.87,-43.22"/>
</g>
<!-- test&#45;web -->
<g id="node13" class="node">
<title>test&#45;web</title>
<polygon fill="#fff2ae" stroke="black" points="142,-36 80,-36 80,0 142,0 142,-36"/>
<text text-anchor="middle" x="111" y="-14.3" font-family="Times,serif" font-size="14.00">test&#45;web</text>
</g>
<!-- test_pipeline&#45;&gt;test&#45;web -->
<g id="edge13" class="edge">
<title>test_pipeline&#45;&gt;test&#45;web</title>
<path fill="none" stroke="black" d="M80.68,-72.05C85.28,-64.01 90.88,-54.2 96.01,-45.23"/>
<polygon fill="black" stroke="black" points="99.21,-46.69 101.13,-36.28 93.13,-43.22 99.21,-46.69"/>
</g>
<!-- upload_processor -->
<g id="node4" class="node">
<title>upload_processor</title>
<ellipse fill="white" stroke="black" cx="159" cy="-378" rx="70.69" ry="18"/>
<text text-anchor="middle" x="159" y="-374.3" font-family="Times,serif" font-size="14.00">upload processor</text>
</g>
<!-- archive -->
<g id="node7" class="node">
<title>archive</title>
<polygon fill="white" stroke="black" points="151,-324 95,-324 95,-288 151,-288 151,-324"/>
<text text-anchor="middle" x="123" y="-302.3" font-family="Times,serif" font-size="14.00">archive</text>
</g>
<!-- upload_processor&#45;&gt;archive -->
<g id="edge4" class="edge">
<title>upload_processor&#45;&gt;archive</title>
<path fill="none" stroke="black" d="M150.29,-360.05C146.15,-352.01 141.11,-342.2 136.49,-333.23"/>
<polygon fill="black" stroke="black" points="139.57,-331.57 131.88,-324.28 133.35,-334.77 139.57,-331.57"/>
</g>
<!-- main -->
<g id="node8" class="node">
<title>main</title>
<polygon fill="#e6f5c9" stroke="black" points="223,-324 169,-324 169,-288 223,-288 223,-324"/>
<text text-anchor="middle" x="196" y="-302.3" font-family="Times,serif" font-size="14.00">main</text>
</g>
<!-- upload_processor&#45;&gt;main -->
<g id="edge5" class="edge">
<title>upload_processor&#45;&gt;main</title>
<path fill="none" stroke="black" d="M167.96,-360.05C172.21,-352.01 177.39,-342.2 182.14,-333.23"/>
<polygon fill="black" stroke="black" points="185.29,-334.75 186.87,-324.28 179.1,-331.48 185.29,-334.75"/>
</g>
<!-- reference -->
<g id="node5" class="node">
<title>reference</title>
<polygon fill="white" stroke="black" points="192.5,-612 125.5,-612 125.5,-576 192.5,-576 192.5,-612"/>
<text text-anchor="middle" x="159" y="-590.3" font-family="Times,serif" font-size="14.00">reference</text>
</g>
<!-- reference&#45;&gt;upstream_pipeline -->
<g id="edge1" class="edge">
<title>reference&#45;&gt;upstream_pipeline</title>
<path fill="none" stroke="black" d="M159,-575.7C159,-567.98 159,-558.71 159,-550.11"/>
<polygon fill="black" stroke="black" points="162.5,-550.1 159,-540.1 155.5,-550.1 162.5,-550.1"/>
</g>
<!-- upload&#45;&gt;upload_processor -->
<g id="edge3" class="edge">
<title>upload&#45;&gt;upload_processor</title>
<path fill="none" stroke="black" d="M159,-431.7C159,-423.98 159,-414.71 159,-406.11"/>
<polygon fill="black" stroke="black" points="162.5,-406.1 159,-396.1 155.5,-406.1 162.5,-406.1"/>
</g>
<!-- main&#45;&gt;downstream_pipeline -->
<g id="edge6" class="edge">
<title>main&#45;&gt;downstream_pipeline</title>
<path fill="none" stroke="black" d="M196,-277.67C196,-272.69 196,-267.49 196,-262.51"/>
<polygon fill="black" stroke="black" points="192.5,-277.7 196,-287.7 199.5,-277.7 192.5,-277.7"/>
<polygon fill="black" stroke="black" points="199.5,-262.1 196,-252.1 192.5,-262.1 199.5,-262.1"/>
</g>
<!-- test&#45;&gt;test_pipeline -->
<g id="edge11" class="edge">
<title>test&#45;&gt;test_pipeline</title>
<path fill="none" stroke="black" d="M71,-133.67C71,-128.69 71,-123.49 71,-118.51"/>
<polygon fill="black" stroke="black" points="67.5,-133.7 71,-143.7 74.5,-133.7 67.5,-133.7"/>
<polygon fill="black" stroke="black" points="74.5,-118.1 71,-108.1 67.5,-118.1 74.5,-118.1"/>
</g>
</g>
</svg>
