<?xml version="1.0" encoding="UTF-8" standalone="no"?>
<!DOCTYPE svg PUBLIC "-//W3C//DTD SVG 1.1//EN"
 "http://www.w3.org/Graphics/SVG/1.1/DTD/svg11.dtd">
<!-- Generated by graphviz version 2.44.1 (20200629.0846)
 -->
<!-- Title: dataflow Pages: 1 -->
<svg width="304pt" height="476pt"
 viewBox="0.00 0.00 304.09 476.00" xmlns="http://www.w3.org/2000/svg" xmlns:xlink="http://www.w3.org/1999/xlink">
<g id="graph0" class="graph" transform="scale(1 1) rotate(0) translate(4 472)">
<title>dataflow</title>
<polygon fill="white" stroke="transparent" points="-4,4 -4,-472 300.09,-472 300.09,4 -4,4"/>
<!-- upstream_pipeline -->
<g id="node1" class="node">
<title>upstream_pipeline</title>
<ellipse fill="white" stroke="black" cx="173.95" cy="-378" rx="74.19" ry="18"/>
<text text-anchor="middle" x="173.95" y="-374.3" font-family="Times,serif" font-size="14.00">upstream pipeline</text>
</g>
<!-- upload -->
<g id="node6" class="node">
<title>upload</title>
<polygon fill="white" stroke="black" points="200.95,-324 146.95,-324 146.95,-288 200.95,-288 200.95,-324"/>
<text text-anchor="middle" x="173.95" y="-302.3" font-family="Times,serif" font-size="14.00">upload</text>
</g>
<!-- upstream_pipeline&#45;&gt;upload -->
<g id="edge2" class="edge">
<title>upstream_pipeline&#45;&gt;upload</title>
<path fill="none" stroke="black" d="M173.95,-359.7C173.95,-351.98 173.95,-342.71 173.95,-334.11"/>
<polygon fill="black" stroke="black" points="177.45,-334.1 173.95,-324.1 170.45,-334.1 177.45,-334.1"/>
</g>
<!-- downstream_pipeline -->
<g id="node2" class="node">
<title>downstream_pipeline</title>
<ellipse fill="#e6f5c9" stroke="black" cx="210.95" cy="-90" rx="85.29" ry="18"/>
<text text-anchor="middle" x="210.95" y="-86.3" font-family="Times,serif" font-size="14.00">downstream pipeline</text>
</g>
<!-- temporary -->
<g id="node10" class="node">
<title>temporary</title>
<polygon fill="#fff2ae" stroke="black" points="126.45,-36 53.45,-36 53.45,0 126.45,0 126.45,-36"/>
<text text-anchor="middle" x="89.95" y="-14.3" font-family="Times,serif" font-size="14.00">temporary</text>
</g>
<!-- downstream_pipeline&#45;&gt;temporary -->
<g id="edge7" class="edge">
<title>downstream_pipeline&#45;&gt;temporary</title>
<path fill="none" stroke="black" d="M174.37,-67.84C159.88,-59.46 143.21,-49.82 128.54,-41.32"/>
<polygon fill="black" stroke="black" points="172.78,-70.96 183.19,-72.94 176.28,-64.9 172.78,-70.96"/>
<polygon fill="black" stroke="black" points="130.1,-38.19 119.69,-36.21 126.59,-44.25 130.1,-38.19"/>
</g>
<!-- analysis -->
<g id="node11" class="node">
<title>analysis</title>
<polygon fill="#e6f5c9" stroke="black" points="222.95,-36 162.95,-36 162.95,0 222.95,0 222.95,-36"/>
<text text-anchor="middle" x="192.95" y="-14.3" font-family="Times,serif" font-size="14.00">analysis</text>
</g>
<!-- downstream_pipeline&#45;&gt;analysis -->
<g id="edge8" class="edge">
<title>downstream_pipeline&#45;&gt;analysis</title>
<path fill="none" stroke="black" d="M203.99,-61.95C202.63,-56.65 201.2,-51.1 199.84,-45.81"/>
<polygon fill="black" stroke="black" points="200.62,-62.88 206.5,-71.7 207.4,-61.14 200.62,-62.88"/>
<polygon fill="black" stroke="black" points="203.22,-44.92 197.34,-36.1 196.44,-46.66 203.22,-44.92"/>
</g>
<!-- release -->
<g id="node12" class="node">
<title>release</title>
<polygon fill="white" stroke="black" points="294.95,-36 240.95,-36 240.95,0 294.95,0 294.95,-36"/>
<text text-anchor="middle" x="267.95" y="-14.3" font-family="Times,serif" font-size="14.00">release</text>
</g>
<!-- downstream_pipeline&#45;&gt;release -->
<g id="edge9" class="edge">
<title>downstream_pipeline&#45;&gt;release</title>
<path fill="none" stroke="black" d="M224.74,-72.05C231.57,-63.67 239.95,-53.38 247.51,-44.1"/>
<polygon fill="black" stroke="black" points="250.28,-46.24 253.88,-36.28 244.85,-41.82 250.28,-46.24"/>
</g>
<!-- test_pipeline -->
<g id="node3" class="node">
<title>test_pipeline</title>
<ellipse fill="#cbd5e8" stroke="black" cx="53.95" cy="-90" rx="53.89" ry="18"/>
<text text-anchor="middle" x="53.95" y="-86.3" font-family="Times,serif" font-size="14.00">test pipeline</text>
</g>
<!-- test_pipeline&#45;&gt;temporary -->
<g id="edge11" class="edge">
<title>test_pipeline&#45;&gt;temporary</title>
<path fill="none" stroke="black" d="M67.24,-63.14C70.19,-57.4 73.33,-51.31 76.29,-45.55"/>
<polygon fill="black" stroke="black" points="64.12,-61.56 62.66,-72.05 70.35,-64.76 64.12,-61.56"/>
<polygon fill="black" stroke="black" points="79.6,-46.77 81.06,-36.28 73.37,-43.57 79.6,-46.77"/>
</g>
<!-- upload_processor -->
<g id="node4" class="node">
<title>upload_processor</title>
<ellipse fill="white" stroke="black" cx="173.95" cy="-234" rx="70.69" ry="18"/>
<text text-anchor="middle" x="173.95" y="-230.3" font-family="Times,serif" font-size="14.00">upload processor</text>
</g>
<!-- archive -->
<g id="node7" class="node">
<title>archive</title>
<polygon fill="white" stroke="black" points="165.95,-180 109.95,-180 109.95,-144 165.95,-144 165.95,-180"/>
<text text-anchor="middle" x="137.95" y="-158.3" font-family="Times,serif" font-size="14.00">archive</text>
</g>
<!-- upload_processor&#45;&gt;archive -->
<g id="edge4" class="edge">
<title>upload_processor&#45;&gt;archive</title>
<path fill="none" stroke="black" d="M165.23,-216.05C161.09,-208.01 156.05,-198.2 151.43,-189.23"/>
<polygon fill="black" stroke="black" points="154.52,-187.57 146.83,-180.28 148.29,-190.77 154.52,-187.57"/>
</g>
<!-- main -->
<g id="node8" class="node">
<title>main</title>
<polygon fill="#e6f5c9" stroke="black" points="237.95,-180 183.95,-180 183.95,-144 237.95,-144 237.95,-180"/>
<text text-anchor="middle" x="210.95" y="-158.3" font-family="Times,serif" font-size="14.00">main</text>
</g>
<!-- upload_processor&#45;&gt;main -->
<g id="edge5" class="edge">
<title>upload_processor&#45;&gt;main</title>
<path fill="none" stroke="black" d="M182.9,-216.05C187.16,-208.01 192.34,-198.2 197.08,-189.23"/>
<polygon fill="black" stroke="black" points="200.24,-190.75 201.81,-180.28 194.05,-187.48 200.24,-190.75"/>
</g>
<!-- reference -->
<g id="node5" class="node">
<title>reference</title>
<polygon fill="white" stroke="black" points="207.45,-468 140.45,-468 140.45,-432 207.45,-432 207.45,-468"/>
<text text-anchor="middle" x="173.95" y="-446.3" font-family="Times,serif" font-size="14.00">reference</text>
</g>
<!-- reference&#45;&gt;upstream_pipeline -->
<g id="edge1" class="edge">
<title>reference&#45;&gt;upstream_pipeline</title>
<path fill="none" stroke="black" d="M173.95,-431.7C173.95,-423.98 173.95,-414.71 173.95,-406.11"/>
<polygon fill="black" stroke="black" points="177.45,-406.1 173.95,-396.1 170.45,-406.1 177.45,-406.1"/>
</g>
<!-- upload&#45;&gt;upload_processor -->
<g id="edge3" class="edge">
<title>upload&#45;&gt;upload_processor</title>
<path fill="none" stroke="black" d="M173.95,-287.7C173.95,-279.98 173.95,-270.71 173.95,-262.11"/>
<polygon fill="black" stroke="black" points="177.45,-262.1 173.95,-252.1 170.45,-262.1 177.45,-262.1"/>
</g>
<!-- main&#45;&gt;downstream_pipeline -->
<g id="edge6" class="edge">
<title>main&#45;&gt;downstream_pipeline</title>
<path fill="none" stroke="black" d="M210.95,-143.7C210.95,-135.98 210.95,-126.71 210.95,-118.11"/>
<polygon fill="black" stroke="black" points="214.45,-118.1 210.95,-108.1 207.45,-118.1 214.45,-118.1"/>
</g>
<!-- test -->
<g id="node9" class="node">
<title>test</title>
<polygon fill="#cbd5e8" stroke="black" points="80.95,-180 26.95,-180 26.95,-144 80.95,-144 80.95,-180"/>
<text text-anchor="middle" x="53.95" y="-158.3" font-family="Times,serif" font-size="14.00">test</text>
</g>
<!-- test&#45;&gt;test_pipeline -->
<g id="edge10" class="edge">
<title>test&#45;&gt;test_pipeline</title>
<path fill="none" stroke="black" d="M53.95,-143.7C53.95,-135.98 53.95,-126.71 53.95,-118.11"/>
<polygon fill="black" stroke="black" points="57.45,-118.1 53.95,-108.1 50.45,-118.1 57.45,-118.1"/>
</g>
</g>
</svg>
